<svg xmlns="http://www.w3.org/2000/svg" width="500" height="500" viewBox="0 0 375 375"><defs><clipPath id="ef68a28133"><path d="M0 0h375v375H0z"/></clipPath><clipPath id="5a3f9b979f"><path d="M0 0h375v375H0z"/></clipPath><clipPath id="408f811274"><path d="M0 0h375v375H0Zm0 0"/></clipPath><clipPath id="00ecdeeff5"><path d="M0 0h375v375H0z"/></clipPath><clipPath id="4545ea3d6a"><path d="M0 0h375v375H0z"/></clipPath><clipPath id="8c54989bfc"><path d="M0 0h59v19H0z"/></clipPath><linearGradient id="327f6865b8" x1="-33.699" x2="466.386" y1="-144.784" y2="355.299" gradientTransform="matrix(.75002 0 0 .74973 33.824 100.003)" gradientUnits="userSpaceOnUse"><stop offset="0" stop-color="#ff7f2f"/><stop offset=".125" stop-color="#ff7f2f"/><stop offset=".188" stop-color="#ff7f2f"/><stop offset=".203" stop-color="#ff7f2f"/><stop offset=".207" stop-color="#fe7d2f"/><stop offset=".211" stop-color="#fd7c2f"/><stop offset=".215" stop-color="#fd7c2f"/><stop offset=".219" stop-color="#fc7b2f"/><stop offset=".223" stop-color="#fc7a2f"/><stop offset=".227" stop-color="#fb792f"/><stop offset=".23" stop-color="#fb782f"/><stop offset=".234" stop-color="#fa772f"/><stop offset=".238" stop-color="#f9762f"/><stop offset=".242" stop-color="#f9752f"/><stop offset=".246" stop-color="#f8752f"/><stop offset=".25" stop-color="#f8742f"/><stop offset=".254" stop-color="#f7732f"/><stop offset=".258" stop-color="#f77230"/><stop offset=".262" stop-color="#f67130"/><stop offset=".266" stop-color="#f57030"/><stop offset=".27" stop-color="#f56f30"/><stop offset=".273" stop-color="#f46e30"/><stop offset=".277" stop-color="#f46e30"/><stop offset=".281" stop-color="#f36d30"/><stop offset=".285" stop-color="#f36c30"/><stop offset=".289" stop-color="#f26b30"/><stop offset=".293" stop-color="#f16a30"/><stop offset=".297" stop-color="#f16930"/><stop offset=".301" stop-color="#f06830"/><stop offset=".305" stop-color="#f06730"/><stop offset=".309" stop-color="#ef6730"/><stop offset=".313" stop-color="#ef6630"/><stop offset=".316" stop-color="#ee6530"/><stop offset=".32" stop-color="#ee6430"/><stop offset=".324" stop-color="#ed6330"/><stop offset=".328" stop-color="#ec6230"/><stop offset=".332" stop-color="#ec6130"/><stop offset=".336" stop-color="#eb6030"/><stop offset=".34" stop-color="#eb6030"/><stop offset=".344" stop-color="#ea5f30"/><stop offset=".348" stop-color="#ea5e30"/><stop offset=".352" stop-color="#e95d30"/><stop offset=".355" stop-color="#e85c30"/><stop offset=".359" stop-color="#e85b30"/><stop offset=".363" stop-color="#e75a30"/><stop offset=".367" stop-color="#e75930"/><stop offset=".371" stop-color="#e65931"/><stop offset=".375" stop-color="#e65831"/><stop offset=".379" stop-color="#e55731"/><stop offset=".383" stop-color="#e55631"/><stop offset=".387" stop-color="#e45531"/><stop offset=".391" stop-color="#e35431"/><stop offset=".395" stop-color="#e35331"/><stop offset=".398" stop-color="#e25231"/><stop offset=".402" stop-color="#e25231"/><stop offset=".406" stop-color="#e15131"/><stop offset=".41" stop-color="#e15031"/><stop offset=".414" stop-color="#e04f31"/><stop offset=".418" stop-color="#df4e31"/><stop offset=".422" stop-color="#df4d31"/><stop offset=".426" stop-color="#de4c31"/><stop offset=".43" stop-color="#de4c31"/><stop offset=".434" stop-color="#dd4b31"/><stop offset=".438" stop-color="#dd4a31"/><stop offset=".441" stop-color="#dc4931"/><stop offset=".445" stop-color="#dc4831"/><stop offset=".449" stop-color="#db4731"/><stop offset=".453" stop-color="#da4631"/><stop offset=".457" stop-color="#da4531"/><stop offset=".461" stop-color="#d94531"/><stop offset=".465" stop-color="#d94431"/><stop offset=".469" stop-color="#d84331"/><stop offset=".473" stop-color="#d84231"/><stop offset=".477" stop-color="#d74131"/><stop offset=".48" stop-color="#d64031"/><stop offset=".484" stop-color="#d63f32"/><stop offset=".488" stop-color="#d53e32"/><stop offset=".492" stop-color="#d53e32"/><stop offset=".496" stop-color="#d43d32"/><stop offset=".5" stop-color="#d43c32"/><stop offset=".504" stop-color="#d33b32"/><stop offset=".508" stop-color="#d23a32"/><stop offset=".512" stop-color="#d23932"/><stop offset=".516" stop-color="#d13832"/><stop offset=".52" stop-color="#d13732"/><stop offset=".523" stop-color="#d03732"/><stop offset=".527" stop-color="#d03632"/><stop offset=".531" stop-color="#cf3532"/><stop offset=".535" stop-color="#cf3432"/><stop offset=".539" stop-color="#ce3332"/><stop offset=".543" stop-color="#cd3232"/><stop offset=".547" stop-color="#cd3132"/><stop offset=".551" stop-color="#cc3032"/><stop offset=".555" stop-color="#cc3032"/><stop offset=".559" stop-color="#cb2f32"/><stop offset=".563" stop-color="#cb2e32"/><stop offset=".566" stop-color="#ca2d32"/><stop offset=".57" stop-color="#c92c32"/><stop offset=".574" stop-color="#c92b32"/><stop offset=".578" stop-color="#c82a32"/><stop offset=".582" stop-color="#c82932"/><stop offset=".586" stop-color="#c72932"/><stop offset=".59" stop-color="#c72832"/><stop offset=".594" stop-color="#c62732"/><stop offset=".598" stop-color="#c62632"/><stop offset=".602" stop-color="#c52533"/><stop offset=".605" stop-color="#c42433"/><stop offset=".609" stop-color="#c42333"/><stop offset=".613" stop-color="#c32233"/><stop offset=".617" stop-color="#c32233"/><stop offset=".621" stop-color="#c22133"/><stop offset=".625" stop-color="#c22033"/><stop offset=".629" stop-color="#c11f33"/><stop offset=".633" stop-color="#c01e33"/><stop offset=".637" stop-color="#c01d33"/><stop offset=".641" stop-color="#bf1c33"/><stop offset=".645" stop-color="#bf1c33"/><stop offset=".648" stop-color="#be1b33"/><stop offset=".652" stop-color="#be1a33"/><stop offset=".656" stop-color="#bd1933"/><stop offset=".66" stop-color="#bc1833"/><stop offset=".664" stop-color="#bc1733"/><stop offset=".668" stop-color="#bb1633"/><stop offset=".672" stop-color="#bb1533"/><stop offset=".676" stop-color="#ba1533"/><stop offset=".68" stop-color="#ba1433"/><stop offset=".684" stop-color="#b91333"/><stop offset=".688" stop-color="#b91233"/><stop offset=".691" stop-color="#b81133"/><stop offset=".695" stop-color="#b71033"/><stop offset=".699" stop-color="#b70f33"/><stop offset=".703" stop-color="#b60e33"/><stop offset=".707" stop-color="#b60e33"/><stop offset=".711" stop-color="#b50d33"/><stop offset=".715" stop-color="#b50c34"/><stop offset=".719" stop-color="#b40b34"/><stop offset=".723" stop-color="#b30a34"/><stop offset=".727" stop-color="#b30934"/><stop offset=".73" stop-color="#b20834"/><stop offset=".734" stop-color="#b20734"/><stop offset=".738" stop-color="#b10734"/><stop offset=".742" stop-color="#b10634"/><stop offset=".746" stop-color="#b00534"/><stop offset=".75" stop-color="#b00434"/><stop offset=".754" stop-color="#af0334"/><stop offset=".758" stop-color="#ae0234"/><stop offset=".762" stop-color="#ae0134"/><stop offset=".766" stop-color="#ad0034"/><stop offset=".781" stop-color="#ad0034"/><stop offset=".813" stop-color="#ad0034"/><stop offset=".875" stop-color="#ad0034"/><stop offset="1" stop-color="#ad0034"/></linearGradient><filter id="bece602622" width="100%" height="100%" x="0%" y="0%"><feColorMatrix color-interpolation-filters="sRGB" values="0 0 0 0 1 0 0 0 0 1 0 0 0 0 1 0 0 0 1 0"/></filter><mask id="1f5c697080"><g filter="url(#bece602622)"><g clip-path="url(#5a3f9b979f)"><g clip-path="url(#ef68a28133)"><path d="M104.346 226.447q-2.876-1.206-4.797-4.094-1.922-2.875-1.922-5.984V141.93c0-3.195 1.36-6 4.078-8.406q-4.078-3.357-4.078-8.406v-19.204q0-4.312 3.234-7.546c2.164-2.165 4.688-3.25 7.563-3.25h25.219q3.357 0 6 2.046 2.636 2.035 3.843 4.907l9.125 8.89c2.07 2.086 3.11 4.403 3.11 6.953v19.22c0 3.523-1.602 6.323-4.797 8.405l1.687 1.438c2.07 2.074 3.11 4.39 3.11 6.953v74.438q0 3.842-3 6.953-3 3.124-7.078 3.125H120.44q-3.845-.001-6.97-3.125Zm63.14-.235q-2.875-1.205-4.797-3.968-1.92-2.765-1.921-5.875v-88.844q0-4.312 3.234-7.547 3.247-3.248 7.578-3.25h25.203q3.608.001 6.969 2.875 3.107-1.2 6.344-2.031c2.164-.563 4.453-.844 6.859-.844h13.688q9.843 0 18 4.687c5.445 3.118 9.77 7.235 12.968 12.36l6.485 6.234a37.7 37.7 0 0 1 7.906 11.656q2.89 6.596 2.89 14.282v62.422q0 3.842-3 6.953-3 3.124-7.078 3.125h-25.218q-3.831-.001-6.953-3.125l-9.125-8.875q-2.876-1.206-4.797-4.094c-1.282-1.918-1.922-3.91-1.922-5.984h-1.922v12q0 3.842-3 6.953-3.002 3.124-7.094 3.125H183.58q-3.845-.001-6.969-3.125Zm0 0"/></g></g></g></mask></defs><g clip-path="url(#4545ea3d6a)"><g clip-path="url(#00ecdeeff5)" mask="url(#1f5c697080)"><g clip-path="url(#408f811274)"><path fill="url(#327f6865b8)" d="M-136.5-136.5h648v648h-648z"/></g></g></g><path fill="#e4e2dd" d="M110.134 166.502h-5.593v-18.875h5.593Zm.141-21.61h-5.844v-4.843h5.844Zm13.026 29.376q-3.22 0-5.281-1.203-2.05-1.207-2.969-2.875c-.617-1.106-.937-2.137-.969-3.094h5.703q.188.889 1.032 1.625.855.733 2.484.734 1.734-.001 2.766-1.015c.695-.68 1.047-1.586 1.047-2.719v-2.219h-.188q-.596.676-1.89 1.203-1.3.533-2.876.532-2.408 0-4.359-1.14-1.94-1.138-3.047-3.188-1.112-2.061-1.11-4.657-.002-2.59 1.11-4.64 1.107-2.062 3.047-3.203 1.95-1.139 4.36-1.141 3.326.002 5.171 2.219h.188l.375-1.86h4.797v18.14c0 2.583-.836 4.645-2.5 6.188q-2.485 2.311-6.891 2.313m-.11-13.906q1.655.002 2.782-1.157 1.138-1.17 1.14-2.953-.002-1.78-1.14-2.922c-.75-.757-1.68-1.14-2.781-1.14-1.118 0-2.047.383-2.797 1.14q-1.125 1.142-1.125 2.922 0 1.782 1.125 2.953 1.123 1.159 2.797 1.157m13.942 6.14v-18.875h4.813l.375 1.672h.172q.668-.78 2.015-1.406c.907-.414 2-.625 3.282-.625q2.139 0 3.828.984 1.687.973 2.625 2.766c.632 1.2.953 2.586.953 4.156v11.328h-5.594v-10.39q-.002-1.56-.953-2.532-.938-.984-2.484-.984-1.564 0-2.5.984-.938.974-.938 2.532v10.39Zm31.262.375q-2.814.001-5.078-1.28a9.25 9.25 0 0 1-3.531-3.517q-1.266-2.232-1.266-5.015 0-2.764 1.266-5a9.14 9.14 0 0 1 3.53-3.516c1.509-.851 3.204-1.281 5.079-1.281s3.563.43 5.063 1.281a9.04 9.04 0 0 1 3.53 3.516c.852 1.492 1.282 3.156 1.282 5 0 1.855-.43 3.527-1.281 5.015a9.15 9.15 0 0 1-3.531 3.516q-2.25 1.282-5.063 1.281m0-5.187q1.81.002 3.047-1.297 1.249-1.295 1.25-3.328-.001-2.028-1.25-3.328-1.236-1.297-3.047-1.297-1.815 0-3.062 1.297-1.236 1.3-1.235 3.328-.001 2.033 1.235 3.328 1.247 1.299 3.062 1.297m24.908 4.812h-7.406l-6.328-18.875h5.765l3.891 12.11h.734l3.891-12.11h5.813Zm14.573.375q-2.11 0-3.687-.78-1.582-.781-2.406-2.095c-.555-.875-.828-1.851-.828-2.937 0-1.875.664-3.38 2-4.516q1.998-1.701 5.765-1.703h4.14v-.328q0-1.219-.796-2.016c-.524-.53-1.203-.797-2.047-.797q-1.144.001-1.812.5-.675.503-.97 1.157h-5.468c.125-1.032.523-2.016 1.203-2.953q1.013-1.406 2.813-2.266 1.794-.874 4.234-.875 2.543 0 4.453.969 1.905.956 2.938 2.61c.695 1.093 1.047 2.32 1.047 3.67v11.985h-4.844l-.375-1.625h-.188q-.627.784-2.015 1.39-1.393.61-3.157.61m1.22-4.328c1.187 0 2.108-.32 2.765-.969.664-.644 1-1.507 1-2.593v-.438h-3.39q-1.456.001-2.173.547-.72.534-.719 1.453-.002.925.641 1.469.657.532 1.875.531m0 0"/><g fill="#e4e2dd" clip-path="url(#8c54989bfc)" transform="translate(98 178)"><path d="M3.947 3.083q.64.065 1.156.375.53.297.828.86.312.563.313 1.421-.001.844-.313 1.453-.316.598-.843.938a2.7 2.7 0 0 1-1.157.406l-.343.031H1.259V3.052h2.329q.138 0 .359.03m-.313 4.484c.383-.039.696-.219.938-.531.238-.32.36-.75.36-1.281q-.002-.78-.36-1.203a1.38 1.38 0 0 0-.938-.5q-.14-.014-.265-.016a3 3 0 0 0-.297-.016h-.563v3.563h.86q.124.001.265-.016m7.631.017v.984H7.172V3.052h4.015v.968H8.422v1.297H11v.969H8.422v1.297Zm2.79-4.641q.686 0 1.125.235.45.221.687.625.234.39.281.906h-1.25q-.046-.387-.265-.61-.223-.234-.625-.234-.299 0-.485.14c-.125.094-.187.243-.187.438 0 .211.082.375.25.5q.265.188.922.36c.601.136 1.047.351 1.328.64q.422.438.422 1.094c0 .355-.102.656-.297.906q-.3.361-.781.547a2.8 2.8 0 0 1-1.032.188q-1.02 0-1.64-.438-.627-.435-.703-1.328h1.265q.077.423.375.64.296.205.672.204a.94.94 0 0 0 .578-.172.53.53 0 0 0 .25-.453.65.65 0 0 0-.219-.485q-.223-.2-.796-.328a5.7 5.7 0 0 1-1.032-.36 1.66 1.66 0 0 1-.656-.53q-.22-.328-.219-.86 0-.514.282-.875a1.8 1.8 0 0 1 .75-.562 2.7 2.7 0 0 1 1-.188m6.1 4.063h-1.813l-.5 1.562h-1.344l2-5.515h1.547l1.969 5.515h-1.36Zm-.907-2.875-.593 1.89h1.187Zm7.505 3.062q.06.503.156.828c.062.211.144.39.25.547h-1.36a3.5 3.5 0 0 1-.171-.547 4.5 4.5 0 0 1-.094-.625q-.064-.45-.234-.703a.6.6 0 0 0-.485-.281q-.112-.014-.219-.016h-.718v2.172h-1.25V3.052h2.093q.246.002.422.015c.125 0 .258.008.407.016q.405.047.734.219.327.158.531.468.201.3.203.782-.002.534-.297.875-.282.329-.812.484.433.157.61.484.186.329.234.797m-2.875-1.719h1.078q.293-.03.515-.187.235-.155.235-.531-.002-.374-.203-.532a1.03 1.03 0 0 0-.5-.187H24.8a2 2 0 0 0-.235-.016h-.687Zm8.202 1.719q.061.503.157.828c.062.211.145.39.25.547h-1.36a3.5 3.5 0 0 1-.171-.547 4.5 4.5 0 0 1-.094-.625q-.065-.45-.234-.703a.6.6 0 0 0-.485-.281q-.112-.014-.219-.016h-.718v2.172h-1.25V3.052h2.093q.247.002.422.015c.125 0 .258.008.407.016q.405.047.734.219.328.158.531.468.201.3.203.782-.002.534-.297.875-.282.329-.812.484.433.157.61.484.186.329.234.797m-2.874-1.719h1.078q.293-.03.515-.187.235-.155.235-.531-.002-.374-.203-.532a1.03 1.03 0 0 0-.5-.187h-.203a2 2 0 0 0-.235-.016h-.687Zm6.577-2.531q.857 0 1.469.36.623.345.953.984.341.643.343 1.516-.002.876-.343 1.53-.332.644-.953 1-.612.346-1.47.345c-.562 0-1.054-.114-1.468-.344a2.44 2.44 0 0 1-.969-1q-.328-.655-.328-1.531 0-.873.328-1.516.341-.639.969-.984.623-.36 1.469-.36m0 4.813q.685 0 1.078-.516c.258-.344.39-.82.39-1.437q-.001-.92-.39-1.422-.393-.516-1.078-.516-.691 0-1.078.516-.392.502-.391 1.422c0 .617.129 1.093.39 1.437q.387.516 1.079.516m7.794-.25v1.062h-4.094V3.052h1.25v4.453Zm4.92 0v1.062h-4.094V3.052h1.25v4.453Zm3.326-4.563q.857 0 1.469.36.623.345.953.984c.226.43.344.933.344 1.516 0 .585-.118 1.093-.344 1.53-.219.43-.54.762-.953 1q-.612.346-1.47.345c-.562 0-1.054-.114-1.468-.344a2.44 2.44 0 0 1-.969-1q-.328-.655-.328-1.531 0-.873.328-1.516.341-.639.97-.984c.413-.239.905-.36 1.468-.36m0 4.813q.685 0 1.078-.516c.258-.344.39-.82.39-1.437q-.002-.92-.39-1.422-.393-.516-1.078-.516-.691 0-1.078.516-.392.502-.39 1.422c0 .617.128 1.093.39 1.437q.387.516 1.078.516M3.947 11.083q.64.065 1.156.375.53.297.828.86.312.563.313 1.421-.001.844-.313 1.453-.316.598-.843.938a2.7 2.7 0 0 1-1.157.406l-.343.031H1.259v-5.515h2.329q.138 0 .359.03m-.313 4.484c.383-.039.696-.219.938-.531.238-.32.36-.75.36-1.281q-.002-.78-.36-1.203a1.38 1.38 0 0 0-.938-.5q-.14-.014-.265-.016a3 3 0 0 0-.297-.016h-.563v3.563h.86q.124.001.265-.016m7.631.017v.984H7.172v-5.515h4.015v.968H8.422v1.297H11v.969H8.422v1.297Zm4.278-4.641q.685 0 1.125.235.45.221.687.625.234.39.281.906h-1.25q-.046-.387-.265-.61-.222-.234-.625-.234-.299 0-.485.14c-.125.094-.187.243-.187.438q-.001.315.25.5.264.188.922.36c.601.136 1.047.351 1.328.64q.422.438.422 1.094c0 .355-.102.656-.297.906q-.3.361-.781.547a2.8 2.8 0 0 1-1.032.188q-1.02 0-1.64-.438-.628-.435-.703-1.328h1.265q.077.423.375.64.296.205.672.204a.94.94 0 0 0 .578-.172.53.53 0 0 0 .25-.453.65.65 0 0 0-.219-.485q-.222-.2-.796-.328a5.7 5.7 0 0 1-1.032-.36 1.66 1.66 0 0 1-.656-.53c-.148-.22-.219-.504-.219-.86q0-.514.282-.875a1.8 1.8 0 0 1 .75-.562 2.7 2.7 0 0 1 1-.188m5.553 0q.857 0 1.468.36c.414.23.735.558.954.984q.341.644.343 1.516-.002.876-.343 1.53-.331.645-.954 1-.611.346-1.468.345-.846 0-1.47-.344a2.44 2.44 0 0 1-.968-1q-.328-.655-.328-1.531 0-.872.328-1.516.34-.639.969-.984.623-.36 1.469-.36m0 4.813q.685 0 1.078-.516c.258-.344.39-.82.39-1.437q-.002-.92-.39-1.422-.393-.516-1.078-.516-.691 0-1.078.516-.392.503-.391 1.422c0 .617.129 1.093.39 1.437q.387.516 1.079.516m4.95-3.735v1.297h2.5v.969h-2.5v2.281h-1.25v-5.515h4.015v.968Zm7.964 0h-1.843v4.547h-1.25V12.02h-1.829v-.968h4.922Zm8-.968-1.437 5.515h-1.672l-.828-4.469-.89 4.47H35.51l-1.36-5.516h1.344l.86 4.546.843-4.468h1.797l.828 4.5.907-4.578Zm3.673 3.953H43.87l-.5 1.562h-1.344l2-5.515h1.547l1.97 5.515h-1.36Zm-.907-2.875-.593 1.89h1.187Zm7.504 3.062q.062.502.157.828c.063.211.145.39.25.547h-1.36a3.5 3.5 0 0 1-.171-.547 4.5 4.5 0 0 1-.094-.625q-.064-.45-.234-.703a.6.6 0 0 0-.485-.281q-.112-.014-.218-.016h-.72v2.172h-1.25v-5.515h2.095q.245.001.422.015c.125 0 .257.008.406.016q.405.047.734.219.328.157.531.468c.133.2.204.461.204.782 0 .355-.102.648-.297.875q-.284.329-.813.484.434.157.61.484.188.329.234.797m-2.874-1.719h1.078q.293-.03.516-.187.234-.154.234-.531-.002-.374-.203-.532a1.03 1.03 0 0 0-.5-.187h-.203a2 2 0 0 0-.235-.016h-.687Zm8.171 2.11v.984h-4.094v-5.515H57.5v.968h-2.766v1.297h2.578v.969h-2.578v1.297Zm0 0"/></g></svg>
