<svg xmlns="http://www.w3.org/2000/svg" xmlns:xlink="http://www.w3.org/1999/xlink" width="500" zoomAndPan="magnify" viewBox="0 0 375 374.999991" height="500" preserveAspectRatio="xMidYMid meet" version="1.0"><defs><clipPath id="8474fd9cd9"><path d="M 98 157 L 156 157 L 156 210 L 98 210 Z M 98 157 " clip-rule="nonzero"/></clipPath><clipPath id="9270b23ec2"><path d="M 282.140625 228.804688 L 163.023438 293.917969 L 92.875 165.59375 L 211.988281 100.476562 Z M 282.140625 228.804688 " clip-rule="nonzero"/></clipPath><clipPath id="8798c87026"><path d="M 282.140625 228.804688 L 163.023438 293.917969 L 92.875 165.59375 L 211.988281 100.476562 Z M 282.140625 228.804688 " clip-rule="nonzero"/></clipPath><clipPath id="5977a89d00"><path d="M 160 113 L 232 113 L 232 251 L 160 251 Z M 160 113 " clip-rule="nonzero"/></clipPath><clipPath id="0ea889102c"><path d="M 282.140625 228.804688 L 163.023438 293.917969 L 92.875 165.59375 L 211.988281 100.476562 Z M 282.140625 228.804688 " clip-rule="nonzero"/></clipPath><clipPath id="0309265b5b"><path d="M 282.140625 228.804688 L 163.023438 293.917969 L 92.875 165.59375 L 211.988281 100.476562 Z M 282.140625 228.804688 " clip-rule="nonzero"/></clipPath><clipPath id="8fbd4138f3"><path d="M 159 257 L 183 257 L 183 281 L 159 281 Z M 159 257 " clip-rule="nonzero"/></clipPath><clipPath id="afefdcd08a"><path d="M 282.140625 228.804688 L 163.023438 293.917969 L 92.875 165.59375 L 211.988281 100.476562 Z M 282.140625 228.804688 " clip-rule="nonzero"/></clipPath><clipPath id="4e888c93b0"><path d="M 282.140625 228.804688 L 163.023438 293.917969 L 92.875 165.59375 L 211.988281 100.476562 Z M 282.140625 228.804688 " clip-rule="nonzero"/></clipPath></defs><rect x="-37.5" width="450" fill="#ffffff" y="-37.499999" height="449.999989" fill-opacity="1"/><rect x="-37.5" width="450" fill="#0a0a0a" y="-37.499999" height="449.999989" fill-opacity="1"/><g clip-path="url(#8474fd9cd9)"><g clip-path="url(#9270b23ec2)"><g clip-path="url(#8798c87026)"><path fill="#e7e3dd" d="M 103.804688 178.871094 L 154.671875 209.835938 L 155.273438 183.5625 L 115.660156 159.433594 C 112.078125 157.253906 107.726562 157.277344 104.273438 159.164062 C 102.582031 160.089844 101.105469 161.46875 100.03125 163.234375 C 96.742188 168.628906 98.449219 175.59375 103.804688 178.871094 Z M 103.804688 178.871094 " fill-opacity="1" fill-rule="nonzero"/></g></g></g><g clip-path="url(#5977a89d00)"><g clip-path="url(#0ea889102c)"><g clip-path="url(#0309265b5b)"><path fill="#e7e3dd" d="M 160.464844 238.953125 L 161.054688 213.703125 L 161.675781 187.414062 L 162.625 146.75 C 162.902344 134.5625 169.730469 123.347656 180.417969 117.507812 C 191.277344 111.570312 204.078125 111.863281 214.664062 118.300781 C 225.238281 124.714844 231.390625 135.96875 231.09375 148.355469 L 229.410156 219.476562 C 229.242188 226.859375 225.269531 233.390625 218.796875 236.929688 C 212.328125 240.46875 204.683594 240.285156 198.355469 236.453125 L 196.152344 235.109375 L 189.863281 231.289062 L 190.488281 205 L 206.753906 214.894531 L 208.308594 147.851562 C 208.453125 141.882812 204.515625 138.816406 202.800781 137.777344 C 201.089844 136.738281 196.558594 134.628906 191.316406 137.5 C 187.734375 139.453125 185.4375 143.226562 185.375 147.304688 L 184.117188 201.09375 L 183.496094 227.382812 L 183.226562 239.46875 C 183.066406 245.765625 177.863281 250.742188 171.566406 250.585938 C 165.289062 250.453125 160.308594 245.25 160.464844 238.953125 Z M 160.464844 238.953125 " fill-opacity="1" fill-rule="nonzero"/></g></g></g><g clip-path="url(#8fbd4138f3)"><g clip-path="url(#afefdcd08a)"><g clip-path="url(#4e888c93b0)"><path fill="#e7e3dd" d="M 178.289062 260.027344 C 166.367188 250.914062 152.578125 268.035156 164.011719 277.765625 C 175.945312 286.84375 189.734375 269.722656 178.289062 260.027344 Z M 178.289062 260.027344 " fill-opacity="1" fill-rule="nonzero"/></g></g></g></svg>