<svg xmlns="http://www.w3.org/2000/svg" xmlns:xlink="http://www.w3.org/1999/xlink" width="500" zoomAndPan="magnify" viewBox="0 0 375 374.999991" height="500" preserveAspectRatio="xMidYMid meet" version="1.0"><defs><g/><linearGradient x1="0" gradientTransform="matrix(0.75, 0, 0, 0.75, 0.0000045, 0)" y1="0" x2="499.999979" gradientUnits="userSpaceOnUse" y2="499.999979" id="3b8c67fba8"><stop stop-opacity="1" stop-color="rgb(100%, 49.798584%, 18.429565%)" offset="0"/><stop stop-opacity="1" stop-color="rgb(99.873352%, 49.603271%, 18.437195%)" offset="0.0078125"/><stop stop-opacity="1" stop-color="rgb(99.621582%, 49.214172%, 18.452454%)" offset="0.015625"/><stop stop-opacity="1" stop-color="rgb(99.371338%, 48.826599%, 18.467712%)" offset="0.0234375"/><stop stop-opacity="1" stop-color="rgb(99.119568%, 48.4375%, 18.482971%)" offset="0.03125"/><stop stop-opacity="1" stop-color="rgb(98.867798%, 48.048401%, 18.49823%)" offset="0.0390625"/><stop stop-opacity="1" stop-color="rgb(98.617554%, 47.659302%, 18.513489%)" offset="0.046875"/><stop stop-opacity="1" stop-color="rgb(98.365784%, 47.270203%, 18.528748%)" offset="0.0546875"/><stop stop-opacity="1" stop-color="rgb(98.114014%, 46.881104%, 18.544006%)" offset="0.0625"/><stop stop-opacity="1" stop-color="rgb(97.86377%, 46.492004%, 18.559265%)" offset="0.0703125"/><stop stop-opacity="1" stop-color="rgb(97.612%, 46.102905%, 18.574524%)" offset="0.078125"/><stop stop-opacity="1" stop-color="rgb(97.360229%, 45.713806%, 18.589783%)" offset="0.0859375"/><stop stop-opacity="1" stop-color="rgb(97.109985%, 45.324707%, 18.605042%)" offset="0.09375"/><stop stop-opacity="1" stop-color="rgb(96.858215%, 44.935608%, 18.6203%)" offset="0.101562"/><stop stop-opacity="1" stop-color="rgb(96.606445%, 44.546509%, 18.635559%)" offset="0.109375"/><stop stop-opacity="1" stop-color="rgb(96.356201%, 44.15741%, 18.650818%)" offset="0.117188"/><stop stop-opacity="1" stop-color="rgb(96.104431%, 43.768311%, 18.666077%)" offset="0.125"/><stop stop-opacity="1" stop-color="rgb(95.852661%, 43.379211%, 18.681335%)" offset="0.132812"/><stop stop-opacity="1" stop-color="rgb(95.602417%, 42.990112%, 18.696594%)" offset="0.140625"/><stop stop-opacity="1" stop-color="rgb(95.350647%, 42.601013%, 18.711853%)" offset="0.148437"/><stop stop-opacity="1" stop-color="rgb(95.098877%, 42.211914%, 18.727112%)" offset="0.15625"/><stop stop-opacity="1" stop-color="rgb(94.848633%, 41.822815%, 18.742371%)" offset="0.164062"/><stop stop-opacity="1" stop-color="rgb(94.596863%, 41.433716%, 18.759155%)" offset="0.171875"/><stop stop-opacity="1" stop-color="rgb(94.345093%, 41.044617%, 18.774414%)" offset="0.179687"/><stop stop-opacity="1" stop-color="rgb(94.094849%, 40.655518%, 18.789673%)" offset="0.1875"/><stop stop-opacity="1" stop-color="rgb(93.843079%, 40.266418%, 18.804932%)" offset="0.195312"/><stop stop-opacity="1" stop-color="rgb(93.591309%, 39.877319%, 18.82019%)" offset="0.203125"/><stop stop-opacity="1" stop-color="rgb(93.341064%, 39.48822%, 18.835449%)" offset="0.210938"/><stop stop-opacity="1" stop-color="rgb(93.089294%, 39.099121%, 18.850708%)" offset="0.21875"/><stop stop-opacity="1" stop-color="rgb(92.837524%, 38.710022%, 18.865967%)" offset="0.226562"/><stop stop-opacity="1" stop-color="rgb(92.58728%, 38.320923%, 18.881226%)" offset="0.234375"/><stop stop-opacity="1" stop-color="rgb(92.33551%, 37.931824%, 18.896484%)" offset="0.242188"/><stop stop-opacity="1" stop-color="rgb(92.08374%, 37.542725%, 18.911743%)" offset="0.25"/><stop stop-opacity="1" stop-color="rgb(91.833496%, 37.153625%, 18.927002%)" offset="0.257812"/><stop stop-opacity="1" stop-color="rgb(91.581726%, 36.764526%, 18.942261%)" offset="0.265625"/><stop stop-opacity="1" stop-color="rgb(91.329956%, 36.375427%, 18.95752%)" offset="0.273437"/><stop stop-opacity="1" stop-color="rgb(91.079712%, 35.986328%, 18.972778%)" offset="0.28125"/><stop stop-opacity="1" stop-color="rgb(90.827942%, 35.597229%, 18.988037%)" offset="0.289062"/><stop stop-opacity="1" stop-color="rgb(90.576172%, 35.20813%, 19.003296%)" offset="0.296875"/><stop stop-opacity="1" stop-color="rgb(90.325928%, 34.819031%, 19.018555%)" offset="0.304687"/><stop stop-opacity="1" stop-color="rgb(90.074158%, 34.429932%, 19.033813%)" offset="0.3125"/><stop stop-opacity="1" stop-color="rgb(89.822388%, 34.040833%, 19.049072%)" offset="0.320312"/><stop stop-opacity="1" stop-color="rgb(89.572144%, 33.651733%, 19.064331%)" offset="0.328125"/><stop stop-opacity="1" stop-color="rgb(89.320374%, 33.262634%, 19.07959%)" offset="0.335937"/><stop stop-opacity="1" stop-color="rgb(89.068604%, 32.873535%, 19.094849%)" offset="0.34375"/><stop stop-opacity="1" stop-color="rgb(88.818359%, 32.485962%, 19.110107%)" offset="0.351562"/><stop stop-opacity="1" stop-color="rgb(88.566589%, 32.096863%, 19.125366%)" offset="0.359375"/><stop stop-opacity="1" stop-color="rgb(88.316345%, 31.707764%, 19.140625%)" offset="0.367187"/><stop stop-opacity="1" stop-color="rgb(88.064575%, 31.318665%, 19.155884%)" offset="0.375"/><stop stop-opacity="1" stop-color="rgb(87.812805%, 30.929565%, 19.171143%)" offset="0.382812"/><stop stop-opacity="1" stop-color="rgb(87.562561%, 30.540466%, 19.187927%)" offset="0.390625"/><stop stop-opacity="1" stop-color="rgb(87.310791%, 30.151367%, 19.203186%)" offset="0.398438"/><stop stop-opacity="1" stop-color="rgb(87.059021%, 29.762268%, 19.218445%)" offset="0.40625"/><stop stop-opacity="1" stop-color="rgb(86.808777%, 29.373169%, 19.233704%)" offset="0.414062"/><stop stop-opacity="1" stop-color="rgb(86.557007%, 28.98407%, 19.248962%)" offset="0.421875"/><stop stop-opacity="1" stop-color="rgb(86.305237%, 28.594971%, 19.264221%)" offset="0.429688"/><stop stop-opacity="1" stop-color="rgb(86.054993%, 28.205872%, 19.27948%)" offset="0.4375"/><stop stop-opacity="1" stop-color="rgb(85.803223%, 27.816772%, 19.294739%)" offset="0.445312"/><stop stop-opacity="1" stop-color="rgb(85.551453%, 27.427673%, 19.309998%)" offset="0.453125"/><stop stop-opacity="1" stop-color="rgb(85.301208%, 27.038574%, 19.325256%)" offset="0.460938"/><stop stop-opacity="1" stop-color="rgb(85.049438%, 26.649475%, 19.340515%)" offset="0.46875"/><stop stop-opacity="1" stop-color="rgb(84.797668%, 26.260376%, 19.355774%)" offset="0.476562"/><stop stop-opacity="1" stop-color="rgb(84.547424%, 25.871277%, 19.371033%)" offset="0.484375"/><stop stop-opacity="1" stop-color="rgb(84.295654%, 25.482178%, 19.386292%)" offset="0.492188"/><stop stop-opacity="1" stop-color="rgb(84.043884%, 25.093079%, 19.40155%)" offset="0.5"/><stop stop-opacity="1" stop-color="rgb(83.79364%, 24.703979%, 19.416809%)" offset="0.507812"/><stop stop-opacity="1" stop-color="rgb(83.54187%, 24.31488%, 19.432068%)" offset="0.515625"/><stop stop-opacity="1" stop-color="rgb(83.2901%, 23.925781%, 19.447327%)" offset="0.523437"/><stop stop-opacity="1" stop-color="rgb(83.039856%, 23.536682%, 19.462585%)" offset="0.53125"/><stop stop-opacity="1" stop-color="rgb(82.788086%, 23.147583%, 19.477844%)" offset="0.539062"/><stop stop-opacity="1" stop-color="rgb(82.536316%, 22.758484%, 19.493103%)" offset="0.546875"/><stop stop-opacity="1" stop-color="rgb(82.286072%, 22.369385%, 19.508362%)" offset="0.554687"/><stop stop-opacity="1" stop-color="rgb(82.034302%, 21.980286%, 19.523621%)" offset="0.5625"/><stop stop-opacity="1" stop-color="rgb(81.782532%, 21.591187%, 19.538879%)" offset="0.570312"/><stop stop-opacity="1" stop-color="rgb(81.532288%, 21.202087%, 19.554138%)" offset="0.578125"/><stop stop-opacity="1" stop-color="rgb(81.280518%, 20.812988%, 19.569397%)" offset="0.585937"/><stop stop-opacity="1" stop-color="rgb(81.028748%, 20.423889%, 19.584656%)" offset="0.59375"/><stop stop-opacity="1" stop-color="rgb(80.778503%, 20.03479%, 19.599915%)" offset="0.601562"/><stop stop-opacity="1" stop-color="rgb(80.526733%, 19.645691%, 19.615173%)" offset="0.609375"/><stop stop-opacity="1" stop-color="rgb(80.274963%, 19.256592%, 19.631958%)" offset="0.617187"/><stop stop-opacity="1" stop-color="rgb(80.024719%, 18.867493%, 19.647217%)" offset="0.625"/><stop stop-opacity="1" stop-color="rgb(79.772949%, 18.478394%, 19.662476%)" offset="0.632812"/><stop stop-opacity="1" stop-color="rgb(79.521179%, 18.089294%, 19.677734%)" offset="0.640625"/><stop stop-opacity="1" stop-color="rgb(79.270935%, 17.700195%, 19.692993%)" offset="0.648437"/><stop stop-opacity="1" stop-color="rgb(79.019165%, 17.311096%, 19.708252%)" offset="0.65625"/><stop stop-opacity="1" stop-color="rgb(78.767395%, 16.921997%, 19.723511%)" offset="0.664062"/><stop stop-opacity="1" stop-color="rgb(78.517151%, 16.532898%, 19.73877%)" offset="0.671875"/><stop stop-opacity="1" stop-color="rgb(78.265381%, 16.145325%, 19.754028%)" offset="0.679687"/><stop stop-opacity="1" stop-color="rgb(78.013611%, 15.756226%, 19.769287%)" offset="0.6875"/><stop stop-opacity="1" stop-color="rgb(77.763367%, 15.367126%, 19.784546%)" offset="0.695312"/><stop stop-opacity="1" stop-color="rgb(77.511597%, 14.978027%, 19.799805%)" offset="0.703125"/><stop stop-opacity="1" stop-color="rgb(77.261353%, 14.588928%, 19.815063%)" offset="0.710937"/><stop stop-opacity="1" stop-color="rgb(77.009583%, 14.199829%, 19.830322%)" offset="0.71875"/><stop stop-opacity="1" stop-color="rgb(76.757812%, 13.81073%, 19.845581%)" offset="0.726562"/><stop stop-opacity="1" stop-color="rgb(76.507568%, 13.421631%, 19.86084%)" offset="0.734375"/><stop stop-opacity="1" stop-color="rgb(76.255798%, 13.032532%, 19.876099%)" offset="0.742187"/><stop stop-opacity="1" stop-color="rgb(76.004028%, 12.643433%, 19.891357%)" offset="0.75"/><stop stop-opacity="1" stop-color="rgb(75.753784%, 12.254333%, 19.906616%)" offset="0.757812"/><stop stop-opacity="1" stop-color="rgb(75.502014%, 11.865234%, 19.921875%)" offset="0.765625"/><stop stop-opacity="1" stop-color="rgb(75.250244%, 11.476135%, 19.937134%)" offset="0.773438"/><stop stop-opacity="1" stop-color="rgb(75%, 11.087036%, 19.952393%)" offset="0.78125"/><stop stop-opacity="1" stop-color="rgb(74.74823%, 10.697937%, 19.967651%)" offset="0.789062"/><stop stop-opacity="1" stop-color="rgb(74.49646%, 10.308838%, 19.98291%)" offset="0.796875"/><stop stop-opacity="1" stop-color="rgb(74.246216%, 9.919739%, 19.998169%)" offset="0.804688"/><stop stop-opacity="1" stop-color="rgb(73.994446%, 9.53064%, 20.013428%)" offset="0.8125"/><stop stop-opacity="1" stop-color="rgb(73.742676%, 9.141541%, 20.028687%)" offset="0.820312"/><stop stop-opacity="1" stop-color="rgb(73.492432%, 8.752441%, 20.043945%)" offset="0.828125"/><stop stop-opacity="1" stop-color="rgb(73.240662%, 8.363342%, 20.06073%)" offset="0.835938"/><stop stop-opacity="1" stop-color="rgb(72.988892%, 7.974243%, 20.075989%)" offset="0.84375"/><stop stop-opacity="1" stop-color="rgb(72.738647%, 7.585144%, 20.091248%)" offset="0.851562"/><stop stop-opacity="1" stop-color="rgb(72.486877%, 7.196045%, 20.106506%)" offset="0.859375"/><stop stop-opacity="1" stop-color="rgb(72.235107%, 6.806946%, 20.121765%)" offset="0.867188"/><stop stop-opacity="1" stop-color="rgb(71.984863%, 6.417847%, 20.137024%)" offset="0.875"/><stop stop-opacity="1" stop-color="rgb(71.733093%, 6.028748%, 20.152283%)" offset="0.882812"/><stop stop-opacity="1" stop-color="rgb(71.481323%, 5.639648%, 20.167542%)" offset="0.890625"/><stop stop-opacity="1" stop-color="rgb(71.231079%, 5.250549%, 20.1828%)" offset="0.898438"/><stop stop-opacity="1" stop-color="rgb(70.979309%, 4.86145%, 20.198059%)" offset="0.90625"/><stop stop-opacity="1" stop-color="rgb(70.727539%, 4.472351%, 20.213318%)" offset="0.914062"/><stop stop-opacity="1" stop-color="rgb(70.477295%, 4.083252%, 20.228577%)" offset="0.921875"/><stop stop-opacity="1" stop-color="rgb(70.225525%, 3.694153%, 20.243835%)" offset="0.929688"/><stop stop-opacity="1" stop-color="rgb(69.973755%, 3.305054%, 20.259094%)" offset="0.9375"/><stop stop-opacity="1" stop-color="rgb(69.723511%, 2.915955%, 20.274353%)" offset="0.945312"/><stop stop-opacity="1" stop-color="rgb(69.471741%, 2.526855%, 20.289612%)" offset="0.953125"/><stop stop-opacity="1" stop-color="rgb(69.219971%, 2.137756%, 20.304871%)" offset="0.960938"/><stop stop-opacity="1" stop-color="rgb(68.969727%, 1.748657%, 20.320129%)" offset="0.96875"/><stop stop-opacity="1" stop-color="rgb(68.717957%, 1.359558%, 20.335388%)" offset="0.976562"/><stop stop-opacity="1" stop-color="rgb(68.466187%, 0.970459%, 20.350647%)" offset="0.984375"/><stop stop-opacity="1" stop-color="rgb(68.215942%, 0.58136%, 20.365906%)" offset="0.992188"/><stop stop-opacity="1" stop-color="rgb(67.964172%, 0.193787%, 20.381165%)" offset="1"/></linearGradient><clipPath id="2f60ef489a"><rect x="0" width="59" y="0" height="19"/></clipPath></defs><rect x="-37.5" width="450" fill="#ffffff" y="-37.499999" height="449.999989" fill-opacity="1"/><rect x="-37.5" fill="url(#3b8c67fba8)" width="450" y="-37.499999" height="449.999989"/><g fill="#1e1e1e" fill-opacity="1"><g transform="translate(96.423917, 219.962299)"><g><path d="M 7.921875 6.484375 C 6.003906 5.679688 4.40625 4.316406 3.125 2.390625 C 1.84375 0.472656 1.203125 -1.519531 1.203125 -3.59375 L 1.203125 -78.03125 C 1.203125 -81.226562 2.5625 -84.03125 5.28125 -86.4375 C 2.5625 -88.675781 1.203125 -91.476562 1.203125 -94.84375 L 1.203125 -114.046875 C 1.203125 -116.921875 2.28125 -119.4375 4.4375 -121.59375 C 6.601562 -123.757812 9.125 -124.84375 12 -124.84375 L 37.21875 -124.84375 C 39.457031 -124.84375 41.457031 -124.160156 43.21875 -122.796875 C 44.976562 -121.441406 46.257812 -119.804688 47.0625 -117.890625 L 56.1875 -109 C 58.257812 -106.914062 59.296875 -104.597656 59.296875 -102.046875 L 59.296875 -82.828125 C 59.296875 -79.304688 57.695312 -76.503906 54.5 -74.421875 L 56.1875 -72.984375 C 58.257812 -70.910156 59.296875 -68.59375 59.296875 -66.03125 L 59.296875 8.40625 C 59.296875 10.96875 58.296875 13.285156 56.296875 15.359375 C 54.296875 17.441406 51.9375 18.484375 49.21875 18.484375 L 24.015625 18.484375 C 21.453125 18.484375 19.128906 17.441406 17.046875 15.359375 Z M 7.921875 6.484375 "/></g></g></g><g fill="#1e1e1e" fill-opacity="1"><g transform="translate(161.970646, 219.962299)"><g><path d="M 5.515625 6.25 C 3.597656 5.445312 2 4.125 0.71875 2.28125 C -0.5625 0.4375 -1.203125 -1.519531 -1.203125 -3.59375 L -1.203125 -92.4375 C -1.203125 -95.3125 -0.125 -97.828125 2.03125 -99.984375 C 4.195312 -102.148438 6.722656 -103.234375 9.609375 -103.234375 L 34.8125 -103.234375 C 37.21875 -103.234375 39.539062 -102.273438 41.78125 -100.359375 C 43.851562 -101.160156 45.96875 -101.835938 48.125 -102.390625 C 50.289062 -102.953125 52.578125 -103.234375 54.984375 -103.234375 L 68.671875 -103.234375 C 75.234375 -103.234375 81.234375 -101.671875 86.671875 -98.546875 C 92.117188 -95.429688 96.441406 -91.3125 99.640625 -86.1875 L 106.125 -79.953125 C 109.476562 -76.585938 112.113281 -72.703125 114.03125 -68.296875 C 115.957031 -63.898438 116.921875 -59.140625 116.921875 -54.015625 L 116.921875 8.40625 C 116.921875 10.96875 115.921875 13.285156 113.921875 15.359375 C 111.921875 17.441406 109.5625 18.484375 106.84375 18.484375 L 81.625 18.484375 C 79.070312 18.484375 76.753906 17.441406 74.671875 15.359375 L 65.546875 6.484375 C 63.628906 5.679688 62.03125 4.316406 60.75 2.390625 C 59.46875 0.472656 58.828125 -1.519531 58.828125 -3.59375 L 56.90625 -3.59375 L 56.90625 8.40625 C 56.90625 10.96875 55.90625 13.285156 53.90625 15.359375 C 51.90625 17.441406 49.539062 18.484375 46.8125 18.484375 L 21.609375 18.484375 C 19.046875 18.484375 16.722656 17.441406 14.640625 15.359375 Z M 5.515625 6.25 "/></g></g></g><g fill="#e4e2dd" fill-opacity="1"><g transform="translate(102.321984, 164.137285)"><g><path d="M 7.8125 0 L 2.21875 0 L 2.21875 -18.875 L 7.8125 -18.875 Z M 7.953125 -21.609375 L 2.109375 -21.609375 L 2.109375 -26.453125 L 7.953125 -26.453125 Z M 7.953125 -21.609375 "/></g></g></g><g fill="#e4e2dd" fill-opacity="1"><g transform="translate(112.347912, 164.137285)"><g><path d="M 10.953125 7.765625 C 8.804688 7.765625 7.046875 7.363281 5.671875 6.5625 C 4.304688 5.757812 3.316406 4.800781 2.703125 3.6875 C 2.085938 2.582031 1.765625 1.550781 1.734375 0.59375 L 7.4375 0.59375 C 7.5625 1.1875 7.90625 1.726562 8.46875 2.21875 C 9.039062 2.707031 9.867188 2.953125 10.953125 2.953125 C 12.109375 2.953125 13.03125 2.613281 13.71875 1.9375 C 14.414062 1.257812 14.765625 0.351562 14.765625 -0.78125 L 14.765625 -3 L 14.578125 -3 C 14.179688 -2.550781 13.550781 -2.148438 12.6875 -1.796875 C 11.820312 -1.441406 10.863281 -1.265625 9.8125 -1.265625 C 8.207031 -1.265625 6.753906 -1.644531 5.453125 -2.40625 C 4.160156 -3.164062 3.144531 -4.226562 2.40625 -5.59375 C 1.664062 -6.96875 1.296875 -8.519531 1.296875 -10.25 C 1.296875 -11.976562 1.664062 -13.523438 2.40625 -14.890625 C 3.144531 -16.265625 4.160156 -17.332031 5.453125 -18.09375 C 6.753906 -18.851562 8.207031 -19.234375 9.8125 -19.234375 C 12.03125 -19.234375 13.753906 -18.492188 14.984375 -17.015625 L 15.171875 -17.015625 L 15.546875 -18.875 L 20.34375 -18.875 L 20.34375 -0.734375 C 20.34375 1.847656 19.507812 3.910156 17.84375 5.453125 C 16.1875 6.992188 13.890625 7.765625 10.953125 7.765625 Z M 10.84375 -6.140625 C 11.945312 -6.140625 12.875 -6.523438 13.625 -7.296875 C 14.382812 -8.078125 14.765625 -9.0625 14.765625 -10.25 C 14.765625 -11.4375 14.382812 -12.410156 13.625 -13.171875 C 12.875 -13.929688 11.945312 -14.3125 10.84375 -14.3125 C 9.726562 -14.3125 8.796875 -13.929688 8.046875 -13.171875 C 7.296875 -12.410156 6.921875 -11.4375 6.921875 -10.25 C 6.921875 -9.0625 7.296875 -8.078125 8.046875 -7.296875 C 8.796875 -6.523438 9.726562 -6.140625 10.84375 -6.140625 Z M 10.84375 -6.140625 "/></g></g></g><g fill="#e4e2dd" fill-opacity="1"><g transform="translate(134.915511, 164.137285)"><g><path d="M 2.21875 0 L 2.21875 -18.875 L 7.03125 -18.875 L 7.40625 -17.203125 L 7.578125 -17.203125 C 8.023438 -17.722656 8.695312 -18.191406 9.59375 -18.609375 C 10.5 -19.023438 11.59375 -19.234375 12.875 -19.234375 C 14.300781 -19.234375 15.578125 -18.90625 16.703125 -18.25 C 17.828125 -17.601562 18.703125 -16.679688 19.328125 -15.484375 C 19.960938 -14.285156 20.28125 -12.898438 20.28125 -11.328125 L 20.28125 0 L 14.6875 0 L 14.6875 -10.390625 C 14.6875 -11.429688 14.367188 -12.273438 13.734375 -12.921875 C 13.109375 -13.578125 12.28125 -13.90625 11.25 -13.90625 C 10.207031 -13.90625 9.375 -13.578125 8.75 -12.921875 C 8.125 -12.273438 7.8125 -11.429688 7.8125 -10.390625 L 7.8125 0 Z M 2.21875 0 "/></g></g></g><g fill="#e4e2dd" fill-opacity="1"><g transform="translate(157.224142, 164.137285)"><g><path d="M 11.171875 0.375 C 9.296875 0.375 7.601562 -0.0507812 6.09375 -0.90625 C 4.59375 -1.757812 3.414062 -2.929688 2.5625 -4.421875 C 1.71875 -5.910156 1.296875 -7.582031 1.296875 -9.4375 C 1.296875 -11.28125 1.71875 -12.945312 2.5625 -14.4375 C 3.414062 -15.9375 4.59375 -17.109375 6.09375 -17.953125 C 7.601562 -18.804688 9.296875 -19.234375 11.171875 -19.234375 C 13.046875 -19.234375 14.734375 -18.804688 16.234375 -17.953125 C 17.742188 -17.109375 18.921875 -15.9375 19.765625 -14.4375 C 20.617188 -12.945312 21.046875 -11.28125 21.046875 -9.4375 C 21.046875 -7.582031 20.617188 -5.910156 19.765625 -4.421875 C 18.921875 -2.929688 17.742188 -1.757812 16.234375 -0.90625 C 14.734375 -0.0507812 13.046875 0.375 11.171875 0.375 Z M 11.171875 -4.8125 C 12.378906 -4.8125 13.394531 -5.242188 14.21875 -6.109375 C 15.050781 -6.972656 15.46875 -8.082031 15.46875 -9.4375 C 15.46875 -10.789062 15.050781 -11.898438 14.21875 -12.765625 C 13.394531 -13.628906 12.378906 -14.0625 11.171875 -14.0625 C 9.960938 -14.0625 8.941406 -13.628906 8.109375 -12.765625 C 7.285156 -11.898438 6.875 -10.789062 6.875 -9.4375 C 6.875 -8.082031 7.285156 -6.972656 8.109375 -6.109375 C 8.941406 -5.242188 9.960938 -4.8125 11.171875 -4.8125 Z M 11.171875 -4.8125 "/></g></g></g><g fill="#e4e2dd" fill-opacity="1"><g transform="translate(179.56976, 164.137285)"><g><path d="M 13.734375 0 L 6.328125 0 L 0 -18.875 L 5.765625 -18.875 L 9.65625 -6.765625 L 10.390625 -6.765625 L 14.28125 -18.875 L 20.09375 -18.875 Z M 13.734375 0 "/></g></g></g><g fill="#e4e2dd" fill-opacity="1"><g transform="translate(199.658625, 164.137285)"><g><path d="M 8.21875 0.375 C 6.8125 0.375 5.582031 0.113281 4.53125 -0.40625 C 3.476562 -0.925781 2.675781 -1.625 2.125 -2.5 C 1.570312 -3.375 1.296875 -4.351562 1.296875 -5.4375 C 1.296875 -7.3125 1.960938 -8.816406 3.296875 -9.953125 C 4.628906 -11.085938 6.550781 -11.65625 9.0625 -11.65625 L 13.203125 -11.65625 L 13.203125 -11.984375 C 13.203125 -12.796875 12.9375 -13.46875 12.40625 -14 C 11.882812 -14.53125 11.203125 -14.796875 10.359375 -14.796875 C 9.597656 -14.796875 8.992188 -14.628906 8.546875 -14.296875 C 8.097656 -13.960938 7.773438 -13.578125 7.578125 -13.140625 L 2.109375 -13.140625 C 2.234375 -14.171875 2.632812 -15.15625 3.3125 -16.09375 C 3.988281 -17.03125 4.925781 -17.785156 6.125 -18.359375 C 7.320312 -18.941406 8.734375 -19.234375 10.359375 -19.234375 C 12.054688 -19.234375 13.539062 -18.910156 14.8125 -18.265625 C 16.082031 -17.628906 17.0625 -16.757812 17.75 -15.65625 C 18.445312 -14.5625 18.796875 -13.335938 18.796875 -11.984375 L 18.796875 0 L 13.953125 0 L 13.578125 -1.625 L 13.390625 -1.625 C 12.972656 -1.101562 12.300781 -0.640625 11.375 -0.234375 C 10.445312 0.171875 9.394531 0.375 8.21875 0.375 Z M 9.4375 -3.953125 C 10.625 -3.953125 11.546875 -4.273438 12.203125 -4.921875 C 12.867188 -5.566406 13.203125 -6.429688 13.203125 -7.515625 L 13.203125 -7.953125 L 9.8125 -7.953125 C 8.84375 -7.953125 8.117188 -7.769531 7.640625 -7.40625 C 7.160156 -7.050781 6.921875 -6.566406 6.921875 -5.953125 C 6.921875 -5.335938 7.132812 -4.847656 7.5625 -4.484375 C 8 -4.128906 8.625 -3.953125 9.4375 -3.953125 Z M 9.4375 -3.953125 "/></g></g></g><g transform="matrix(1, 0, 0, 1, 98, 178)"><g clip-path="url(#2f60ef489a)"><g fill="#e4e2dd" fill-opacity="1"><g transform="translate(0.571985, 8.567145)"><g><path d="M 3.375 -5.484375 C 3.800781 -5.441406 4.1875 -5.316406 4.53125 -5.109375 C 4.882812 -4.910156 5.160156 -4.625 5.359375 -4.25 C 5.566406 -3.875 5.671875 -3.398438 5.671875 -2.828125 C 5.671875 -2.265625 5.566406 -1.78125 5.359375 -1.375 C 5.148438 -0.976562 4.867188 -0.664062 4.515625 -0.4375 C 4.171875 -0.21875 3.785156 -0.0820312 3.359375 -0.03125 C 3.222656 -0.0195312 3.109375 -0.0078125 3.015625 0 C 2.921875 0 2.800781 0 2.65625 0 L 0.6875 0 L 0.6875 -5.515625 L 2.65625 -5.515625 C 2.8125 -5.515625 2.929688 -5.515625 3.015625 -5.515625 C 3.109375 -5.515625 3.226562 -5.503906 3.375 -5.484375 Z M 3.0625 -1 C 3.445312 -1.039062 3.757812 -1.21875 4 -1.53125 C 4.238281 -1.851562 4.359375 -2.28125 4.359375 -2.8125 C 4.359375 -3.332031 4.238281 -3.734375 4 -4.015625 C 3.757812 -4.304688 3.445312 -4.472656 3.0625 -4.515625 C 2.96875 -4.523438 2.878906 -4.53125 2.796875 -4.53125 C 2.722656 -4.539062 2.625 -4.546875 2.5 -4.546875 L 1.9375 -4.546875 L 1.9375 -0.984375 L 2.5 -0.984375 C 2.613281 -0.984375 2.710938 -0.984375 2.796875 -0.984375 C 2.878906 -0.984375 2.96875 -0.988281 3.0625 -1 Z M 3.0625 -1 "/></g></g></g><g fill="#e4e2dd" fill-opacity="1"><g transform="translate(6.484034, 8.567145)"><g><path d="M 4.78125 -0.984375 L 4.78125 0 L 0.6875 0 L 0.6875 -5.515625 L 4.703125 -5.515625 L 4.703125 -4.546875 L 1.9375 -4.546875 L 1.9375 -3.25 L 4.515625 -3.25 L 4.515625 -2.28125 L 1.9375 -2.28125 L 1.9375 -0.984375 Z M 4.78125 -0.984375 "/></g></g></g><g fill="#e4e2dd" fill-opacity="1"><g transform="translate(11.492079, 8.567145)"><g><path d="M 2.5625 -5.625 C 3.019531 -5.625 3.394531 -5.546875 3.6875 -5.390625 C 3.988281 -5.242188 4.21875 -5.035156 4.375 -4.765625 C 4.53125 -4.503906 4.625 -4.203125 4.65625 -3.859375 L 3.40625 -3.859375 C 3.375 -4.117188 3.285156 -4.320312 3.140625 -4.46875 C 2.992188 -4.625 2.785156 -4.703125 2.515625 -4.703125 C 2.316406 -4.703125 2.15625 -4.65625 2.03125 -4.5625 C 1.90625 -4.46875 1.84375 -4.320312 1.84375 -4.125 C 1.84375 -3.914062 1.925781 -3.75 2.09375 -3.625 C 2.269531 -3.5 2.578125 -3.378906 3.015625 -3.265625 C 3.617188 -3.128906 4.0625 -2.914062 4.34375 -2.625 C 4.625 -2.332031 4.765625 -1.96875 4.765625 -1.53125 C 4.765625 -1.175781 4.664062 -0.875 4.46875 -0.625 C 4.269531 -0.382812 4.007812 -0.203125 3.6875 -0.078125 C 3.363281 0.046875 3.019531 0.109375 2.65625 0.109375 C 1.976562 0.109375 1.429688 -0.0351562 1.015625 -0.328125 C 0.597656 -0.617188 0.363281 -1.0625 0.3125 -1.65625 L 1.578125 -1.65625 C 1.628906 -1.375 1.753906 -1.160156 1.953125 -1.015625 C 2.148438 -0.878906 2.375 -0.8125 2.625 -0.8125 C 2.851562 -0.8125 3.046875 -0.867188 3.203125 -0.984375 C 3.367188 -1.097656 3.453125 -1.25 3.453125 -1.4375 C 3.453125 -1.625 3.378906 -1.785156 3.234375 -1.921875 C 3.085938 -2.054688 2.820312 -2.164062 2.4375 -2.25 C 2.039062 -2.351562 1.695312 -2.472656 1.40625 -2.609375 C 1.125 -2.742188 0.90625 -2.921875 0.75 -3.140625 C 0.601562 -3.359375 0.53125 -3.644531 0.53125 -4 C 0.53125 -4.34375 0.625 -4.632812 0.8125 -4.875 C 1.007812 -5.125 1.257812 -5.3125 1.5625 -5.4375 C 1.875 -5.5625 2.207031 -5.625 2.5625 -5.625 Z M 2.5625 -5.625 "/></g></g></g><g fill="#e4e2dd" fill-opacity="1"><g transform="translate(16.420128, 8.567145)"><g><path d="M 3.734375 -1.5625 L 1.921875 -1.5625 L 1.421875 0 L 0.078125 0 L 2.078125 -5.515625 L 3.625 -5.515625 L 5.59375 0 L 4.234375 0 Z M 2.828125 -4.4375 L 2.234375 -2.546875 L 3.421875 -2.546875 Z M 2.828125 -4.4375 "/></g></g></g><g fill="#e4e2dd" fill-opacity="1"><g transform="translate(21.940177, 8.567145)"><g><path d="M 4.8125 -1.375 C 4.851562 -1.039062 4.90625 -0.765625 4.96875 -0.546875 C 5.03125 -0.335938 5.113281 -0.15625 5.21875 0 L 3.859375 0 C 3.785156 -0.1875 3.726562 -0.367188 3.6875 -0.546875 C 3.644531 -0.734375 3.613281 -0.941406 3.59375 -1.171875 C 3.550781 -1.472656 3.472656 -1.707031 3.359375 -1.875 C 3.242188 -2.050781 3.082031 -2.144531 2.875 -2.15625 C 2.800781 -2.164062 2.726562 -2.171875 2.65625 -2.171875 C 2.582031 -2.171875 2.507812 -2.171875 2.4375 -2.171875 L 1.9375 -2.171875 L 1.9375 0 L 0.6875 0 L 0.6875 -5.515625 L 2.78125 -5.515625 C 2.945312 -5.515625 3.085938 -5.507812 3.203125 -5.5 C 3.328125 -5.5 3.460938 -5.492188 3.609375 -5.484375 C 3.878906 -5.453125 4.125 -5.378906 4.34375 -5.265625 C 4.5625 -5.160156 4.738281 -5.003906 4.875 -4.796875 C 5.007812 -4.597656 5.078125 -4.335938 5.078125 -4.015625 C 5.078125 -3.660156 4.976562 -3.367188 4.78125 -3.140625 C 4.59375 -2.921875 4.320312 -2.757812 3.96875 -2.65625 C 4.257812 -2.550781 4.460938 -2.390625 4.578125 -2.171875 C 4.703125 -1.953125 4.78125 -1.6875 4.8125 -1.375 Z M 1.9375 -3.09375 L 2.578125 -3.09375 C 2.671875 -3.09375 2.75 -3.09375 2.8125 -3.09375 C 2.882812 -3.09375 2.953125 -3.09375 3.015625 -3.09375 C 3.210938 -3.113281 3.382812 -3.175781 3.53125 -3.28125 C 3.6875 -3.382812 3.765625 -3.5625 3.765625 -3.8125 C 3.765625 -4.0625 3.695312 -4.238281 3.5625 -4.34375 C 3.425781 -4.445312 3.257812 -4.507812 3.0625 -4.53125 C 3 -4.53125 2.929688 -4.53125 2.859375 -4.53125 C 2.796875 -4.539062 2.71875 -4.546875 2.625 -4.546875 L 1.9375 -4.546875 Z M 1.9375 -3.09375 "/></g></g></g><g fill="#e4e2dd" fill-opacity="1"><g transform="translate(27.26822, 8.567145)"><g><path d="M 4.8125 -1.375 C 4.851562 -1.039062 4.90625 -0.765625 4.96875 -0.546875 C 5.03125 -0.335938 5.113281 -0.15625 5.21875 0 L 3.859375 0 C 3.785156 -0.1875 3.726562 -0.367188 3.6875 -0.546875 C 3.644531 -0.734375 3.613281 -0.941406 3.59375 -1.171875 C 3.550781 -1.472656 3.472656 -1.707031 3.359375 -1.875 C 3.242188 -2.050781 3.082031 -2.144531 2.875 -2.15625 C 2.800781 -2.164062 2.726562 -2.171875 2.65625 -2.171875 C 2.582031 -2.171875 2.507812 -2.171875 2.4375 -2.171875 L 1.9375 -2.171875 L 1.9375 0 L 0.6875 0 L 0.6875 -5.515625 L 2.78125 -5.515625 C 2.945312 -5.515625 3.085938 -5.507812 3.203125 -5.5 C 3.328125 -5.5 3.460938 -5.492188 3.609375 -5.484375 C 3.878906 -5.453125 4.125 -5.378906 4.34375 -5.265625 C 4.5625 -5.160156 4.738281 -5.003906 4.875 -4.796875 C 5.007812 -4.597656 5.078125 -4.335938 5.078125 -4.015625 C 5.078125 -3.660156 4.976562 -3.367188 4.78125 -3.140625 C 4.59375 -2.921875 4.320312 -2.757812 3.96875 -2.65625 C 4.257812 -2.550781 4.460938 -2.390625 4.578125 -2.171875 C 4.703125 -1.953125 4.78125 -1.6875 4.8125 -1.375 Z M 1.9375 -3.09375 L 2.578125 -3.09375 C 2.671875 -3.09375 2.75 -3.09375 2.8125 -3.09375 C 2.882812 -3.09375 2.953125 -3.09375 3.015625 -3.09375 C 3.210938 -3.113281 3.382812 -3.175781 3.53125 -3.28125 C 3.6875 -3.382812 3.765625 -3.5625 3.765625 -3.8125 C 3.765625 -4.0625 3.695312 -4.238281 3.5625 -4.34375 C 3.425781 -4.445312 3.257812 -4.507812 3.0625 -4.53125 C 3 -4.53125 2.929688 -4.53125 2.859375 -4.53125 C 2.796875 -4.539062 2.71875 -4.546875 2.625 -4.546875 L 1.9375 -4.546875 Z M 1.9375 -3.09375 "/></g></g></g><g fill="#e4e2dd" fill-opacity="1"><g transform="translate(32.596263, 8.567145)"><g><path d="M 3.1875 -5.625 C 3.757812 -5.625 4.25 -5.503906 4.65625 -5.265625 C 5.070312 -5.035156 5.390625 -4.707031 5.609375 -4.28125 C 5.835938 -3.851562 5.953125 -3.347656 5.953125 -2.765625 C 5.953125 -2.179688 5.835938 -1.671875 5.609375 -1.234375 C 5.390625 -0.804688 5.070312 -0.472656 4.65625 -0.234375 C 4.25 -0.00390625 3.757812 0.109375 3.1875 0.109375 C 2.625 0.109375 2.132812 -0.00390625 1.71875 -0.234375 C 1.300781 -0.472656 0.976562 -0.804688 0.75 -1.234375 C 0.53125 -1.671875 0.421875 -2.179688 0.421875 -2.765625 C 0.421875 -3.347656 0.53125 -3.851562 0.75 -4.28125 C 0.976562 -4.707031 1.300781 -5.035156 1.71875 -5.265625 C 2.132812 -5.503906 2.625 -5.625 3.1875 -5.625 Z M 3.1875 -0.8125 C 3.644531 -0.8125 4.003906 -0.984375 4.265625 -1.328125 C 4.523438 -1.671875 4.65625 -2.148438 4.65625 -2.765625 C 4.65625 -3.378906 4.523438 -3.851562 4.265625 -4.1875 C 4.003906 -4.53125 3.644531 -4.703125 3.1875 -4.703125 C 2.726562 -4.703125 2.367188 -4.53125 2.109375 -4.1875 C 1.847656 -3.851562 1.71875 -3.378906 1.71875 -2.765625 C 1.71875 -2.148438 1.847656 -1.671875 2.109375 -1.328125 C 2.367188 -0.984375 2.726562 -0.8125 3.1875 -0.8125 Z M 3.1875 -0.8125 "/></g></g></g><g fill="#e4e2dd" fill-opacity="1"><g transform="translate(38.796317, 8.567145)"><g><path d="M 4.78125 -1.0625 L 4.78125 0 L 0.6875 0 L 0.6875 -5.515625 L 1.9375 -5.515625 L 1.9375 -1.0625 Z M 4.78125 -1.0625 "/></g></g></g><g fill="#e4e2dd" fill-opacity="1"><g transform="translate(43.716359, 8.567145)"><g><path d="M 4.78125 -1.0625 L 4.78125 0 L 0.6875 0 L 0.6875 -5.515625 L 1.9375 -5.515625 L 1.9375 -1.0625 Z M 4.78125 -1.0625 "/></g></g></g><g fill="#e4e2dd" fill-opacity="1"><g transform="translate(48.636402, 8.567145)"><g><path d="M 3.1875 -5.625 C 3.757812 -5.625 4.25 -5.503906 4.65625 -5.265625 C 5.070312 -5.035156 5.390625 -4.707031 5.609375 -4.28125 C 5.835938 -3.851562 5.953125 -3.347656 5.953125 -2.765625 C 5.953125 -2.179688 5.835938 -1.671875 5.609375 -1.234375 C 5.390625 -0.804688 5.070312 -0.472656 4.65625 -0.234375 C 4.25 -0.00390625 3.757812 0.109375 3.1875 0.109375 C 2.625 0.109375 2.132812 -0.00390625 1.71875 -0.234375 C 1.300781 -0.472656 0.976562 -0.804688 0.75 -1.234375 C 0.53125 -1.671875 0.421875 -2.179688 0.421875 -2.765625 C 0.421875 -3.347656 0.53125 -3.851562 0.75 -4.28125 C 0.976562 -4.707031 1.300781 -5.035156 1.71875 -5.265625 C 2.132812 -5.503906 2.625 -5.625 3.1875 -5.625 Z M 3.1875 -0.8125 C 3.644531 -0.8125 4.003906 -0.984375 4.265625 -1.328125 C 4.523438 -1.671875 4.65625 -2.148438 4.65625 -2.765625 C 4.65625 -3.378906 4.523438 -3.851562 4.265625 -4.1875 C 4.003906 -4.53125 3.644531 -4.703125 3.1875 -4.703125 C 2.726562 -4.703125 2.367188 -4.53125 2.109375 -4.1875 C 1.847656 -3.851562 1.71875 -3.378906 1.71875 -2.765625 C 1.71875 -2.148438 1.847656 -1.671875 2.109375 -1.328125 C 2.367188 -0.984375 2.726562 -0.8125 3.1875 -0.8125 Z M 3.1875 -0.8125 "/></g></g></g><g fill="#e4e2dd" fill-opacity="1"><g transform="translate(54.842915, 8.567145)"><g/></g></g><g fill="#e4e2dd" fill-opacity="1"><g transform="translate(0.571985, 16.567159)"><g><path d="M 3.375 -5.484375 C 3.800781 -5.441406 4.1875 -5.316406 4.53125 -5.109375 C 4.882812 -4.910156 5.160156 -4.625 5.359375 -4.25 C 5.566406 -3.875 5.671875 -3.398438 5.671875 -2.828125 C 5.671875 -2.265625 5.566406 -1.78125 5.359375 -1.375 C 5.148438 -0.976562 4.867188 -0.664062 4.515625 -0.4375 C 4.171875 -0.21875 3.785156 -0.0820312 3.359375 -0.03125 C 3.222656 -0.0195312 3.109375 -0.0078125 3.015625 0 C 2.921875 0 2.800781 0 2.65625 0 L 0.6875 0 L 0.6875 -5.515625 L 2.65625 -5.515625 C 2.8125 -5.515625 2.929688 -5.515625 3.015625 -5.515625 C 3.109375 -5.515625 3.226562 -5.503906 3.375 -5.484375 Z M 3.0625 -1 C 3.445312 -1.039062 3.757812 -1.21875 4 -1.53125 C 4.238281 -1.851562 4.359375 -2.28125 4.359375 -2.8125 C 4.359375 -3.332031 4.238281 -3.734375 4 -4.015625 C 3.757812 -4.304688 3.445312 -4.472656 3.0625 -4.515625 C 2.96875 -4.523438 2.878906 -4.53125 2.796875 -4.53125 C 2.722656 -4.539062 2.625 -4.546875 2.5 -4.546875 L 1.9375 -4.546875 L 1.9375 -0.984375 L 2.5 -0.984375 C 2.613281 -0.984375 2.710938 -0.984375 2.796875 -0.984375 C 2.878906 -0.984375 2.96875 -0.988281 3.0625 -1 Z M 3.0625 -1 "/></g></g></g><g fill="#e4e2dd" fill-opacity="1"><g transform="translate(6.484034, 16.567159)"><g><path d="M 4.78125 -0.984375 L 4.78125 0 L 0.6875 0 L 0.6875 -5.515625 L 4.703125 -5.515625 L 4.703125 -4.546875 L 1.9375 -4.546875 L 1.9375 -3.25 L 4.515625 -3.25 L 4.515625 -2.28125 L 1.9375 -2.28125 L 1.9375 -0.984375 Z M 4.78125 -0.984375 "/></g></g></g><g fill="#e4e2dd" fill-opacity="1"><g transform="translate(11.492079, 16.567159)"><g/></g></g><g fill="#e4e2dd" fill-opacity="1"><g transform="translate(12.980088, 16.567159)"><g><path d="M 2.5625 -5.625 C 3.019531 -5.625 3.394531 -5.546875 3.6875 -5.390625 C 3.988281 -5.242188 4.21875 -5.035156 4.375 -4.765625 C 4.53125 -4.503906 4.625 -4.203125 4.65625 -3.859375 L 3.40625 -3.859375 C 3.375 -4.117188 3.285156 -4.320312 3.140625 -4.46875 C 2.992188 -4.625 2.785156 -4.703125 2.515625 -4.703125 C 2.316406 -4.703125 2.15625 -4.65625 2.03125 -4.5625 C 1.90625 -4.46875 1.84375 -4.320312 1.84375 -4.125 C 1.84375 -3.914062 1.925781 -3.75 2.09375 -3.625 C 2.269531 -3.5 2.578125 -3.378906 3.015625 -3.265625 C 3.617188 -3.128906 4.0625 -2.914062 4.34375 -2.625 C 4.625 -2.332031 4.765625 -1.96875 4.765625 -1.53125 C 4.765625 -1.175781 4.664062 -0.875 4.46875 -0.625 C 4.269531 -0.382812 4.007812 -0.203125 3.6875 -0.078125 C 3.363281 0.046875 3.019531 0.109375 2.65625 0.109375 C 1.976562 0.109375 1.429688 -0.0351562 1.015625 -0.328125 C 0.597656 -0.617188 0.363281 -1.0625 0.3125 -1.65625 L 1.578125 -1.65625 C 1.628906 -1.375 1.753906 -1.160156 1.953125 -1.015625 C 2.148438 -0.878906 2.375 -0.8125 2.625 -0.8125 C 2.851562 -0.8125 3.046875 -0.867188 3.203125 -0.984375 C 3.367188 -1.097656 3.453125 -1.25 3.453125 -1.4375 C 3.453125 -1.625 3.378906 -1.785156 3.234375 -1.921875 C 3.085938 -2.054688 2.820312 -2.164062 2.4375 -2.25 C 2.039062 -2.351562 1.695312 -2.472656 1.40625 -2.609375 C 1.125 -2.742188 0.90625 -2.921875 0.75 -3.140625 C 0.601562 -3.359375 0.53125 -3.644531 0.53125 -4 C 0.53125 -4.34375 0.625 -4.632812 0.8125 -4.875 C 1.007812 -5.125 1.257812 -5.3125 1.5625 -5.4375 C 1.875 -5.5625 2.207031 -5.625 2.5625 -5.625 Z M 2.5625 -5.625 "/></g></g></g><g fill="#e4e2dd" fill-opacity="1"><g transform="translate(17.908137, 16.567159)"><g><path d="M 3.1875 -5.625 C 3.757812 -5.625 4.25 -5.503906 4.65625 -5.265625 C 5.070312 -5.035156 5.390625 -4.707031 5.609375 -4.28125 C 5.835938 -3.851562 5.953125 -3.347656 5.953125 -2.765625 C 5.953125 -2.179688 5.835938 -1.671875 5.609375 -1.234375 C 5.390625 -0.804688 5.070312 -0.472656 4.65625 -0.234375 C 4.25 -0.00390625 3.757812 0.109375 3.1875 0.109375 C 2.625 0.109375 2.132812 -0.00390625 1.71875 -0.234375 C 1.300781 -0.472656 0.976562 -0.804688 0.75 -1.234375 C 0.53125 -1.671875 0.421875 -2.179688 0.421875 -2.765625 C 0.421875 -3.347656 0.53125 -3.851562 0.75 -4.28125 C 0.976562 -4.707031 1.300781 -5.035156 1.71875 -5.265625 C 2.132812 -5.503906 2.625 -5.625 3.1875 -5.625 Z M 3.1875 -0.8125 C 3.644531 -0.8125 4.003906 -0.984375 4.265625 -1.328125 C 4.523438 -1.671875 4.65625 -2.148438 4.65625 -2.765625 C 4.65625 -3.378906 4.523438 -3.851562 4.265625 -4.1875 C 4.003906 -4.53125 3.644531 -4.703125 3.1875 -4.703125 C 2.726562 -4.703125 2.367188 -4.53125 2.109375 -4.1875 C 1.847656 -3.851562 1.71875 -3.378906 1.71875 -2.765625 C 1.71875 -2.148438 1.847656 -1.671875 2.109375 -1.328125 C 2.367188 -0.984375 2.726562 -0.8125 3.1875 -0.8125 Z M 3.1875 -0.8125 "/></g></g></g><g fill="#e4e2dd" fill-opacity="1"><g transform="translate(24.108191, 16.567159)"><g><path d="M 1.9375 -4.546875 L 1.9375 -3.25 L 4.4375 -3.25 L 4.4375 -2.28125 L 1.9375 -2.28125 L 1.9375 0 L 0.6875 0 L 0.6875 -5.515625 L 4.703125 -5.515625 L 4.703125 -4.546875 Z M 1.9375 -4.546875 "/></g></g></g><g fill="#e4e2dd" fill-opacity="1"><g transform="translate(28.932235, 16.567159)"><g><path d="M 5.078125 -4.546875 L 3.234375 -4.546875 L 3.234375 0 L 1.984375 0 L 1.984375 -4.546875 L 0.15625 -4.546875 L 0.15625 -5.515625 L 5.078125 -5.515625 Z M 5.078125 -4.546875 "/></g></g></g><g fill="#e4e2dd" fill-opacity="1"><g transform="translate(33.948276, 16.567159)"><g><path d="M 8.0625 -5.515625 L 6.625 0 L 4.953125 0 L 4.125 -4.46875 L 3.234375 0 L 1.5625 0 L 0.203125 -5.515625 L 1.546875 -5.515625 L 2.40625 -0.96875 L 3.25 -5.4375 L 5.046875 -5.4375 L 5.875 -0.9375 L 6.78125 -5.515625 Z M 8.0625 -5.515625 "/></g></g></g><g fill="#e4e2dd" fill-opacity="1"><g transform="translate(41.948351, 16.567159)"><g><path d="M 3.734375 -1.5625 L 1.921875 -1.5625 L 1.421875 0 L 0.078125 0 L 2.078125 -5.515625 L 3.625 -5.515625 L 5.59375 0 L 4.234375 0 Z M 2.828125 -4.4375 L 2.234375 -2.546875 L 3.421875 -2.546875 Z M 2.828125 -4.4375 "/></g></g></g><g fill="#e4e2dd" fill-opacity="1"><g transform="translate(47.468401, 16.567159)"><g><path d="M 4.8125 -1.375 C 4.851562 -1.039062 4.90625 -0.765625 4.96875 -0.546875 C 5.03125 -0.335938 5.113281 -0.15625 5.21875 0 L 3.859375 0 C 3.785156 -0.1875 3.726562 -0.367188 3.6875 -0.546875 C 3.644531 -0.734375 3.613281 -0.941406 3.59375 -1.171875 C 3.550781 -1.472656 3.472656 -1.707031 3.359375 -1.875 C 3.242188 -2.050781 3.082031 -2.144531 2.875 -2.15625 C 2.800781 -2.164062 2.726562 -2.171875 2.65625 -2.171875 C 2.582031 -2.171875 2.507812 -2.171875 2.4375 -2.171875 L 1.9375 -2.171875 L 1.9375 0 L 0.6875 0 L 0.6875 -5.515625 L 2.78125 -5.515625 C 2.945312 -5.515625 3.085938 -5.507812 3.203125 -5.5 C 3.328125 -5.5 3.460938 -5.492188 3.609375 -5.484375 C 3.878906 -5.453125 4.125 -5.378906 4.34375 -5.265625 C 4.5625 -5.160156 4.738281 -5.003906 4.875 -4.796875 C 5.007812 -4.597656 5.078125 -4.335938 5.078125 -4.015625 C 5.078125 -3.660156 4.976562 -3.367188 4.78125 -3.140625 C 4.59375 -2.921875 4.320312 -2.757812 3.96875 -2.65625 C 4.257812 -2.550781 4.460938 -2.390625 4.578125 -2.171875 C 4.703125 -1.953125 4.78125 -1.6875 4.8125 -1.375 Z M 1.9375 -3.09375 L 2.578125 -3.09375 C 2.671875 -3.09375 2.75 -3.09375 2.8125 -3.09375 C 2.882812 -3.09375 2.953125 -3.09375 3.015625 -3.09375 C 3.210938 -3.113281 3.382812 -3.175781 3.53125 -3.28125 C 3.6875 -3.382812 3.765625 -3.5625 3.765625 -3.8125 C 3.765625 -4.0625 3.695312 -4.238281 3.5625 -4.34375 C 3.425781 -4.445312 3.257812 -4.507812 3.0625 -4.53125 C 3 -4.53125 2.929688 -4.53125 2.859375 -4.53125 C 2.796875 -4.539062 2.71875 -4.546875 2.625 -4.546875 L 1.9375 -4.546875 Z M 1.9375 -3.09375 "/></g></g></g><g fill="#e4e2dd" fill-opacity="1"><g transform="translate(52.796444, 16.567159)"><g><path d="M 4.78125 -0.984375 L 4.78125 0 L 0.6875 0 L 0.6875 -5.515625 L 4.703125 -5.515625 L 4.703125 -4.546875 L 1.9375 -4.546875 L 1.9375 -3.25 L 4.515625 -3.25 L 4.515625 -2.28125 L 1.9375 -2.28125 L 1.9375 -0.984375 Z M 4.78125 -0.984375 "/></g></g></g></g></g></svg>