<svg xmlns="http://www.w3.org/2000/svg" xmlns:xlink="http://www.w3.org/1999/xlink" width="500" zoomAndPan="magnify" viewBox="0 0 375 374.999991" height="500" preserveAspectRatio="xMidYMid meet" version="1.0"><defs><g/></defs><rect x="-37.5" width="450" fill="#ffffff" y="-37.499999" height="449.999989" fill-opacity="1"/><rect x="-37.5" width="450" fill="#ffffff" y="-37.499999" height="449.999989" fill-opacity="1"/><g fill="#1e1e1e" fill-opacity="1"><g transform="translate(96.423917, 219.962299)"><g><path d="M 7.921875 6.484375 C 6.003906 5.679688 4.40625 4.316406 3.125 2.390625 C 1.84375 0.472656 1.203125 -1.519531 1.203125 -3.59375 L 1.203125 -78.03125 C 1.203125 -81.226562 2.5625 -84.03125 5.28125 -86.4375 C 2.5625 -88.675781 1.203125 -91.476562 1.203125 -94.84375 L 1.203125 -114.046875 C 1.203125 -116.921875 2.28125 -119.4375 4.4375 -121.59375 C 6.601562 -123.757812 9.125 -124.84375 12 -124.84375 L 37.21875 -124.84375 C 39.457031 -124.84375 41.457031 -124.160156 43.21875 -122.796875 C 44.976562 -121.441406 46.257812 -119.804688 47.0625 -117.890625 L 56.1875 -109 C 58.257812 -106.914062 59.296875 -104.597656 59.296875 -102.046875 L 59.296875 -82.828125 C 59.296875 -79.304688 57.695312 -76.503906 54.5 -74.421875 L 56.1875 -72.984375 C 58.257812 -70.910156 59.296875 -68.59375 59.296875 -66.03125 L 59.296875 8.40625 C 59.296875 10.96875 58.296875 13.285156 56.296875 15.359375 C 54.296875 17.441406 51.9375 18.484375 49.21875 18.484375 L 24.015625 18.484375 C 21.453125 18.484375 19.128906 17.441406 17.046875 15.359375 Z M 7.921875 6.484375 "/></g></g></g><g fill="#1e1e1e" fill-opacity="1"><g transform="translate(161.970646, 219.962299)"><g><path d="M 5.515625 6.25 C 3.597656 5.445312 2 4.125 0.71875 2.28125 C -0.5625 0.4375 -1.203125 -1.519531 -1.203125 -3.59375 L -1.203125 -92.4375 C -1.203125 -95.3125 -0.125 -97.828125 2.03125 -99.984375 C 4.195312 -102.148438 6.722656 -103.234375 9.609375 -103.234375 L 34.8125 -103.234375 C 37.21875 -103.234375 39.539062 -102.273438 41.78125 -100.359375 C 43.851562 -101.160156 45.96875 -101.835938 48.125 -102.390625 C 50.289062 -102.953125 52.578125 -103.234375 54.984375 -103.234375 L 68.671875 -103.234375 C 75.234375 -103.234375 81.234375 -101.671875 86.671875 -98.546875 C 92.117188 -95.429688 96.441406 -91.3125 99.640625 -86.1875 L 106.125 -79.953125 C 109.476562 -76.585938 112.113281 -72.703125 114.03125 -68.296875 C 115.957031 -63.898438 116.921875 -59.140625 116.921875 -54.015625 L 116.921875 8.40625 C 116.921875 10.96875 115.921875 13.285156 113.921875 15.359375 C 111.921875 17.441406 109.5625 18.484375 106.84375 18.484375 L 81.625 18.484375 C 79.070312 18.484375 76.753906 17.441406 74.671875 15.359375 L 65.546875 6.484375 C 63.628906 5.679688 62.03125 4.316406 60.75 2.390625 C 59.46875 0.472656 58.828125 -1.519531 58.828125 -3.59375 L 56.90625 -3.59375 L 56.90625 8.40625 C 56.90625 10.96875 55.90625 13.285156 53.90625 15.359375 C 51.90625 17.441406 49.539062 18.484375 46.8125 18.484375 L 21.609375 18.484375 C 19.046875 18.484375 16.722656 17.441406 14.640625 15.359375 Z M 5.515625 6.25 "/></g></g></g></svg>